<mxfile host="drawio-plugin" modified="2024-09-24T12:34:16.712Z" agent="Mozilla/5.0 (Windows NT 10.0; Win64; x64) AppleWebKit/537.36 (KHTML, like Gecko) Chrome/122.0.0.0 Safari/537.36" version="22.1.22" etag="PGfPzSZ73OR59XanxIFv" type="embed">
  <diagram id="1UU0k9A4145RIhNfB96d" name="Page-1">
    <mxGraphModel dx="668" dy="370" grid="1" gridSize="10" guides="1" tooltips="1" connect="1" arrows="1" fold="1" page="1" pageScale="1" pageWidth="850" pageHeight="1100" math="0" shadow="0">
      <root>
        <mxCell id="0" />
        <mxCell id="1" parent="0" />
      </root>
    </mxGraphModel>
  </diagram>
</mxfile>
